<svg width="21" height="17" viewBox="0 0 21 17" fill="none" xmlns="http://www.w3.org/2000/svg">
<path fill-rule="evenodd" clip-rule="evenodd" d="M10.503 0.833984C14.4666 0.836859 18.0259 3.61507 20.025 8.26682C20.1035 8.44794 20.1035 8.65303 20.025 8.83415C18.0268 13.4869 14.4666 16.2651 10.503 16.2679H10.4972C6.53354 16.2651 2.97429 13.4869 0.975211 8.83415C0.897586 8.65303 0.897586 8.44794 0.975211 8.26682C2.97429 3.61507 6.5345 0.836859 10.4972 0.833984H10.503ZM10.5001 2.27148C7.20725 2.27244 4.20384 4.61365 2.42134 8.55048C4.20384 12.4883 7.20629 14.8295 10.5001 14.8304C13.7939 14.8295 16.7963 12.4883 18.5788 8.55048C16.7963 4.61365 13.7939 2.27244 10.5001 2.27148ZM10.4998 4.80225C12.5669 4.80225 14.2488 6.48413 14.2488 8.55125C14.2488 10.6174 12.5669 12.2983 10.4998 12.2983C8.43267 12.2983 6.75176 10.6174 6.75176 8.55125C6.75176 6.48413 8.43267 4.80225 10.4998 4.80225ZM10.4998 6.23975C9.22522 6.23975 8.18926 7.27667 8.18926 8.55125C8.18926 9.82488 9.22522 10.8608 10.4998 10.8608C11.7744 10.8608 12.8113 9.82488 12.8113 8.55125C12.8113 7.27667 11.7744 6.23975 10.4998 6.23975Z" fill="#272A39"/>
</svg>
