<svg width="21" height="20" viewBox="0 0 21 20" fill="none" xmlns="http://www.w3.org/2000/svg">
<circle cx="10.5" cy="10" r="9.5" fill="#EB1B1B" stroke="white"/>
<path d="M10.5117 14.1094C9.99089 14.1094 9.52474 14.0117 9.11328 13.8164C8.70182 13.6185 8.375 13.3477 8.13281 13.0039C7.89323 12.6602 7.76563 12.2669 7.75 11.8242H9.15625C9.18229 12.1523 9.32422 12.4206 9.58203 12.6289C9.83984 12.8346 10.1497 12.9375 10.5117 12.9375C10.7956 12.9375 11.0482 12.8724 11.2695 12.7422C11.4909 12.612 11.6654 12.431 11.793 12.1992C11.9206 11.9674 11.9831 11.7031 11.9805 11.4062C11.9831 11.1042 11.9193 10.8359 11.7891 10.6016C11.6589 10.3672 11.4805 10.1836 11.2539 10.0508C11.0273 9.91536 10.7669 9.84766 10.4727 9.84766C10.2331 9.84505 9.9974 9.88932 9.76563 9.98047C9.53385 10.0716 9.35026 10.1914 9.21484 10.3398L7.90625 10.125L8.32422 6H12.9648V7.21094H9.52344L9.29297 9.33203H9.33984C9.48828 9.15755 9.69792 9.01302 9.96875 8.89844C10.2396 8.78125 10.5365 8.72266 10.8594 8.72266C11.3438 8.72266 11.776 8.83724 12.1563 9.06641C12.5365 9.29297 12.8359 9.60547 13.0547 10.0039C13.2734 10.4023 13.3828 10.8581 13.3828 11.3711C13.3828 11.8997 13.2604 12.3711 13.0156 12.7852C12.7734 13.1966 12.4362 13.5208 12.0039 13.7578C11.5742 13.9922 11.0768 14.1094 10.5117 14.1094Z" fill="white"/>
</svg>
